<mxfile host="app.diagrams.net" agent="Mozilla/5.0 (Windows NT 10.0; Win64; x64) AppleWebKit/537.36 (KHTML, like Gecko) Chrome/133.0.0.0 Safari/537.36" version="26.1.1">
  <diagram name="Page-1" id="4ytkUm6YQcTYRJcoLyKO">
    <mxGraphModel dx="1050" dy="618" grid="1" gridSize="10" guides="1" tooltips="1" connect="1" arrows="1" fold="1" page="1" pageScale="1" pageWidth="1100" pageHeight="850" math="0" shadow="0">
      <root>
        <mxCell id="0" />
        <mxCell id="1" parent="0" />
        <mxCell id="LSAl8_cPCKzA_d2onYpP-6" value="" style="edgeStyle=orthogonalEdgeStyle;rounded=1;orthogonalLoop=1;jettySize=auto;html=1;curved=0;fontFamily=inter;fontSource=https%3A%2F%2Ffonts.googleapis.com%2Fcss%3Ffamily%3Dinter;" edge="1" parent="1" source="LSAl8_cPCKzA_d2onYpP-1" target="LSAl8_cPCKzA_d2onYpP-5">
          <mxGeometry relative="1" as="geometry">
            <Array as="points">
              <mxPoint x="203" y="95" />
            </Array>
          </mxGeometry>
        </mxCell>
        <mxCell id="LSAl8_cPCKzA_d2onYpP-8" value="" style="edgeStyle=orthogonalEdgeStyle;rounded=0;orthogonalLoop=1;jettySize=auto;html=1;fontFamily=inter;fontSource=https%3A%2F%2Ffonts.googleapis.com%2Fcss%3Ffamily%3Dinter;" edge="1" parent="1" source="LSAl8_cPCKzA_d2onYpP-1" target="LSAl8_cPCKzA_d2onYpP-7">
          <mxGeometry relative="1" as="geometry" />
        </mxCell>
        <mxCell id="LSAl8_cPCKzA_d2onYpP-9" value="" style="edgeStyle=orthogonalEdgeStyle;rounded=0;orthogonalLoop=1;jettySize=auto;html=1;fontFamily=inter;fontSource=https%3A%2F%2Ffonts.googleapis.com%2Fcss%3Ffamily%3Dinter;" edge="1" parent="1" source="LSAl8_cPCKzA_d2onYpP-1" target="LSAl8_cPCKzA_d2onYpP-7">
          <mxGeometry relative="1" as="geometry" />
        </mxCell>
        <mxCell id="LSAl8_cPCKzA_d2onYpP-10" value="" style="edgeStyle=orthogonalEdgeStyle;rounded=0;orthogonalLoop=1;jettySize=auto;html=1;fontFamily=inter;fontSource=https%3A%2F%2Ffonts.googleapis.com%2Fcss%3Ffamily%3Dinter;" edge="1" parent="1" source="LSAl8_cPCKzA_d2onYpP-1" target="LSAl8_cPCKzA_d2onYpP-7">
          <mxGeometry relative="1" as="geometry" />
        </mxCell>
        <mxCell id="LSAl8_cPCKzA_d2onYpP-12" value="" style="edgeStyle=orthogonalEdgeStyle;rounded=1;orthogonalLoop=1;jettySize=auto;html=1;curved=0;fontFamily=inter;fontSource=https%3A%2F%2Ffonts.googleapis.com%2Fcss%3Ffamily%3Dinter;" edge="1" parent="1" source="LSAl8_cPCKzA_d2onYpP-1" target="LSAl8_cPCKzA_d2onYpP-11">
          <mxGeometry relative="1" as="geometry">
            <Array as="points">
              <mxPoint x="203" y="225" />
            </Array>
          </mxGeometry>
        </mxCell>
        <mxCell id="LSAl8_cPCKzA_d2onYpP-1" value="Login" style="text;html=1;align=center;verticalAlign=middle;whiteSpace=wrap;rounded=0;fontFamily=inter;fontSource=https%3A%2F%2Ffonts.googleapis.com%2Fcss%3Ffamily%3Dinter;" vertex="1" parent="1">
          <mxGeometry x="172.5" y="145" width="60" height="30" as="geometry" />
        </mxCell>
        <mxCell id="LSAl8_cPCKzA_d2onYpP-13" value="" style="edgeStyle=orthogonalEdgeStyle;rounded=0;orthogonalLoop=1;jettySize=auto;html=1;fontFamily=inter;fontSource=https%3A%2F%2Ffonts.googleapis.com%2Fcss%3Ffamily%3Dinter;" edge="1" parent="1" source="LSAl8_cPCKzA_d2onYpP-2" target="LSAl8_cPCKzA_d2onYpP-1">
          <mxGeometry relative="1" as="geometry" />
        </mxCell>
        <mxCell id="LSAl8_cPCKzA_d2onYpP-2" value="" style="shape=actor;whiteSpace=wrap;html=1;fontFamily=inter;fontSource=https%3A%2F%2Ffonts.googleapis.com%2Fcss%3Ffamily%3Dinter;" vertex="1" parent="1">
          <mxGeometry x="110" y="140" width="30" height="40" as="geometry" />
        </mxCell>
        <mxCell id="LSAl8_cPCKzA_d2onYpP-18" style="edgeStyle=orthogonalEdgeStyle;rounded=1;orthogonalLoop=1;jettySize=auto;html=1;exitX=1;exitY=0.5;exitDx=0;exitDy=0;entryX=0;entryY=0.5;entryDx=0;entryDy=0;curved=0;" edge="1" parent="1" source="LSAl8_cPCKzA_d2onYpP-5" target="LSAl8_cPCKzA_d2onYpP-16">
          <mxGeometry relative="1" as="geometry" />
        </mxCell>
        <mxCell id="LSAl8_cPCKzA_d2onYpP-5" value="Admin" style="text;html=1;align=center;verticalAlign=middle;whiteSpace=wrap;rounded=1;fontFamily=inter;fontSource=https%3A%2F%2Ffonts.googleapis.com%2Fcss%3Ffamily%3Dinter;" vertex="1" parent="1">
          <mxGeometry x="280" y="80" width="60" height="30" as="geometry" />
        </mxCell>
        <mxCell id="LSAl8_cPCKzA_d2onYpP-17" style="edgeStyle=orthogonalEdgeStyle;rounded=1;orthogonalLoop=1;jettySize=auto;html=1;exitX=1;exitY=0.5;exitDx=0;exitDy=0;entryX=0;entryY=0.5;entryDx=0;entryDy=0;curved=0;" edge="1" parent="1" source="LSAl8_cPCKzA_d2onYpP-7" target="LSAl8_cPCKzA_d2onYpP-16">
          <mxGeometry relative="1" as="geometry" />
        </mxCell>
        <mxCell id="LSAl8_cPCKzA_d2onYpP-7" value="Power User" style="text;html=1;align=center;verticalAlign=middle;whiteSpace=wrap;rounded=0;fontFamily=inter;fontSource=https%3A%2F%2Ffonts.googleapis.com%2Fcss%3Ffamily%3Dinter;" vertex="1" parent="1">
          <mxGeometry x="280" y="145" width="85" height="30" as="geometry" />
        </mxCell>
        <mxCell id="LSAl8_cPCKzA_d2onYpP-19" style="edgeStyle=orthogonalEdgeStyle;rounded=1;orthogonalLoop=1;jettySize=auto;html=1;entryX=0;entryY=0.5;entryDx=0;entryDy=0;curved=0;" edge="1" parent="1" source="LSAl8_cPCKzA_d2onYpP-11" target="LSAl8_cPCKzA_d2onYpP-16">
          <mxGeometry relative="1" as="geometry">
            <mxPoint x="400" y="160" as="targetPoint" />
          </mxGeometry>
        </mxCell>
        <mxCell id="LSAl8_cPCKzA_d2onYpP-11" value="User" style="text;html=1;align=center;verticalAlign=middle;whiteSpace=wrap;rounded=0;fontFamily=inter;fontSource=https%3A%2F%2Ffonts.googleapis.com%2Fcss%3Ffamily%3Dinter;" vertex="1" parent="1">
          <mxGeometry x="280" y="210" width="60" height="30" as="geometry" />
        </mxCell>
        <mxCell id="LSAl8_cPCKzA_d2onYpP-16" value="Mobile Number" style="shape=process;whiteSpace=wrap;html=1;backgroundOutline=1;fontFamily=inter;fontSource=https%3A%2F%2Ffonts.googleapis.com%2Fcss%3Ffamily%3Dinter;" vertex="1" parent="1">
          <mxGeometry x="500" y="130" width="120" height="60" as="geometry" />
        </mxCell>
        <mxCell id="LSAl8_cPCKzA_d2onYpP-22" value="Table" style="shape=table;startSize=30;container=1;collapsible=1;childLayout=tableLayout;fixedRows=1;rowLines=0;fontStyle=1;align=center;resizeLast=1;html=1;fontFamily=inter;fontSource=https%3A%2F%2Ffonts.googleapis.com%2Fcss%3Ffamily%3Dinter;" vertex="1" parent="1">
          <mxGeometry x="220" y="360" width="180" height="150" as="geometry" />
        </mxCell>
        <mxCell id="LSAl8_cPCKzA_d2onYpP-23" value="" style="shape=tableRow;horizontal=0;startSize=0;swimlaneHead=0;swimlaneBody=0;fillColor=none;collapsible=0;dropTarget=0;points=[[0,0.5],[1,0.5]];portConstraint=eastwest;top=0;left=0;right=0;bottom=1;fontFamily=inter;fontSource=https%3A%2F%2Ffonts.googleapis.com%2Fcss%3Ffamily%3Dinter;" vertex="1" parent="LSAl8_cPCKzA_d2onYpP-22">
          <mxGeometry y="30" width="180" height="30" as="geometry" />
        </mxCell>
        <mxCell id="LSAl8_cPCKzA_d2onYpP-24" value="PK" style="shape=partialRectangle;connectable=0;fillColor=none;top=0;left=0;bottom=0;right=0;fontStyle=1;overflow=hidden;whiteSpace=wrap;html=1;fontFamily=inter;fontSource=https%3A%2F%2Ffonts.googleapis.com%2Fcss%3Ffamily%3Dinter;" vertex="1" parent="LSAl8_cPCKzA_d2onYpP-23">
          <mxGeometry width="30" height="30" as="geometry">
            <mxRectangle width="30" height="30" as="alternateBounds" />
          </mxGeometry>
        </mxCell>
        <mxCell id="LSAl8_cPCKzA_d2onYpP-25" value="UniqueID" style="shape=partialRectangle;connectable=0;fillColor=none;top=0;left=0;bottom=0;right=0;align=left;spacingLeft=6;fontStyle=5;overflow=hidden;whiteSpace=wrap;html=1;fontFamily=inter;fontSource=https%3A%2F%2Ffonts.googleapis.com%2Fcss%3Ffamily%3Dinter;" vertex="1" parent="LSAl8_cPCKzA_d2onYpP-23">
          <mxGeometry x="30" width="150" height="30" as="geometry">
            <mxRectangle width="150" height="30" as="alternateBounds" />
          </mxGeometry>
        </mxCell>
        <mxCell id="LSAl8_cPCKzA_d2onYpP-26" value="" style="shape=tableRow;horizontal=0;startSize=0;swimlaneHead=0;swimlaneBody=0;fillColor=none;collapsible=0;dropTarget=0;points=[[0,0.5],[1,0.5]];portConstraint=eastwest;top=0;left=0;right=0;bottom=0;fontFamily=inter;fontSource=https%3A%2F%2Ffonts.googleapis.com%2Fcss%3Ffamily%3Dinter;" vertex="1" parent="LSAl8_cPCKzA_d2onYpP-22">
          <mxGeometry y="60" width="180" height="30" as="geometry" />
        </mxCell>
        <mxCell id="LSAl8_cPCKzA_d2onYpP-27" value="" style="shape=partialRectangle;connectable=0;fillColor=none;top=0;left=0;bottom=0;right=0;editable=1;overflow=hidden;whiteSpace=wrap;html=1;fontFamily=inter;fontSource=https%3A%2F%2Ffonts.googleapis.com%2Fcss%3Ffamily%3Dinter;" vertex="1" parent="LSAl8_cPCKzA_d2onYpP-26">
          <mxGeometry width="30" height="30" as="geometry">
            <mxRectangle width="30" height="30" as="alternateBounds" />
          </mxGeometry>
        </mxCell>
        <mxCell id="LSAl8_cPCKzA_d2onYpP-28" value="Row 1" style="shape=partialRectangle;connectable=0;fillColor=none;top=0;left=0;bottom=0;right=0;align=left;spacingLeft=6;overflow=hidden;whiteSpace=wrap;html=1;fontFamily=inter;fontSource=https%3A%2F%2Ffonts.googleapis.com%2Fcss%3Ffamily%3Dinter;" vertex="1" parent="LSAl8_cPCKzA_d2onYpP-26">
          <mxGeometry x="30" width="150" height="30" as="geometry">
            <mxRectangle width="150" height="30" as="alternateBounds" />
          </mxGeometry>
        </mxCell>
        <mxCell id="LSAl8_cPCKzA_d2onYpP-29" value="" style="shape=tableRow;horizontal=0;startSize=0;swimlaneHead=0;swimlaneBody=0;fillColor=none;collapsible=0;dropTarget=0;points=[[0,0.5],[1,0.5]];portConstraint=eastwest;top=0;left=0;right=0;bottom=0;fontFamily=inter;fontSource=https%3A%2F%2Ffonts.googleapis.com%2Fcss%3Ffamily%3Dinter;" vertex="1" parent="LSAl8_cPCKzA_d2onYpP-22">
          <mxGeometry y="90" width="180" height="30" as="geometry" />
        </mxCell>
        <mxCell id="LSAl8_cPCKzA_d2onYpP-30" value="" style="shape=partialRectangle;connectable=0;fillColor=none;top=0;left=0;bottom=0;right=0;editable=1;overflow=hidden;whiteSpace=wrap;html=1;fontFamily=inter;fontSource=https%3A%2F%2Ffonts.googleapis.com%2Fcss%3Ffamily%3Dinter;" vertex="1" parent="LSAl8_cPCKzA_d2onYpP-29">
          <mxGeometry width="30" height="30" as="geometry">
            <mxRectangle width="30" height="30" as="alternateBounds" />
          </mxGeometry>
        </mxCell>
        <mxCell id="LSAl8_cPCKzA_d2onYpP-31" value="Row 2" style="shape=partialRectangle;connectable=0;fillColor=none;top=0;left=0;bottom=0;right=0;align=left;spacingLeft=6;overflow=hidden;whiteSpace=wrap;html=1;fontFamily=inter;fontSource=https%3A%2F%2Ffonts.googleapis.com%2Fcss%3Ffamily%3Dinter;" vertex="1" parent="LSAl8_cPCKzA_d2onYpP-29">
          <mxGeometry x="30" width="150" height="30" as="geometry">
            <mxRectangle width="150" height="30" as="alternateBounds" />
          </mxGeometry>
        </mxCell>
        <mxCell id="LSAl8_cPCKzA_d2onYpP-32" value="" style="shape=tableRow;horizontal=0;startSize=0;swimlaneHead=0;swimlaneBody=0;fillColor=none;collapsible=0;dropTarget=0;points=[[0,0.5],[1,0.5]];portConstraint=eastwest;top=0;left=0;right=0;bottom=0;fontFamily=inter;fontSource=https%3A%2F%2Ffonts.googleapis.com%2Fcss%3Ffamily%3Dinter;" vertex="1" parent="LSAl8_cPCKzA_d2onYpP-22">
          <mxGeometry y="120" width="180" height="30" as="geometry" />
        </mxCell>
        <mxCell id="LSAl8_cPCKzA_d2onYpP-33" value="" style="shape=partialRectangle;connectable=0;fillColor=none;top=0;left=0;bottom=0;right=0;editable=1;overflow=hidden;whiteSpace=wrap;html=1;fontFamily=inter;fontSource=https%3A%2F%2Ffonts.googleapis.com%2Fcss%3Ffamily%3Dinter;" vertex="1" parent="LSAl8_cPCKzA_d2onYpP-32">
          <mxGeometry width="30" height="30" as="geometry">
            <mxRectangle width="30" height="30" as="alternateBounds" />
          </mxGeometry>
        </mxCell>
        <mxCell id="LSAl8_cPCKzA_d2onYpP-34" value="Row 3" style="shape=partialRectangle;connectable=0;fillColor=none;top=0;left=0;bottom=0;right=0;align=left;spacingLeft=6;overflow=hidden;whiteSpace=wrap;html=1;fontFamily=inter;fontSource=https%3A%2F%2Ffonts.googleapis.com%2Fcss%3Ffamily%3Dinter;" vertex="1" parent="LSAl8_cPCKzA_d2onYpP-32">
          <mxGeometry x="30" width="150" height="30" as="geometry">
            <mxRectangle width="150" height="30" as="alternateBounds" />
          </mxGeometry>
        </mxCell>
      </root>
    </mxGraphModel>
  </diagram>
</mxfile>
